<?xml version="1.0" encoding="UTF-8" standalone="no"?>
<svg
   width="244.99998"
   zoomAndPan="magnify"
   viewBox="0 0 183.74999 183.74998"
   height="244.99998"
   preserveAspectRatio="xMidYMid"
   version="1.0"
   id="svg21"
   sodipodi:docname="favicon.svg"
   xmlns:inkscape="http://www.inkscape.org/namespaces/inkscape"
   xmlns:sodipodi="http://sodipodi.sourceforge.net/DTD/sodipodi-0.dtd"
   xmlns="http://www.w3.org/2000/svg"
   xmlns:svg="http://www.w3.org/2000/svg">
  <sodipodi:namedview
     id="namedview21"
     pagecolor="#ffffff"
     bordercolor="#666666"
     borderopacity="1.0"
     inkscape:showpageshadow="2"
     inkscape:pageopacity="0.0"
     inkscape:pagecheckerboard="0"
     inkscape:deskcolor="#d1d1d1" />
  <defs
     id="defs3">
    <clipPath
       id="2813415a94">
      <path
         d="m 97,142.37891 h 181.61328 v 38.25 H 97 Z m 0,0"
         clip-rule="nonzero"
         id="path1" />
    </clipPath>
    <clipPath
       id="851891e72f">
      <path
         d="M 152,142.37891 H 278.61328 V 164 H 152 Z m 0,0"
         clip-rule="nonzero"
         id="path2" />
    </clipPath>
    <clipPath
       id="e5a648aaee">
      <path
         d="m 104,162 h 122 v 18.62891 H 104 Z m 0,0"
         clip-rule="nonzero"
         id="path3" />
    </clipPath>
  </defs>
  <g
     fill="#0f5d8f"
     fill-opacity="1"
     id="g6"
     transform="translate(-95.346709,-95.802919)">
    <g
       transform="translate(98.36379,225.39189)"
       id="g5">
      <g
         id="g4">
        <path
           d="m 32.851562,0 v -33.050781 h -7.035156 v 21.40625 l -15.3125,-21.40625 H 3.269531 V 0 h 7.039063 V -22.199219 L 26.066406,0 Z m 0,0"
           id="path4" />
      </g>
    </g>
  </g>
  <g
     fill="#0f5d8f"
     fill-opacity="1"
     id="g9"
     transform="translate(-95.346709,-95.802919)">
    <g
       transform="translate(133.49227,225.39189)"
       id="g8">
      <g
         id="g7">
        <path
           d="m 1.683594,-16.5 c 0,10.40625 7.929687,17.144531 17.59375,17.144531 5.996094,0 10.703125,-2.476562 14.070312,-6.242187 V -18.234375 H 17.589844 v 6.042969 h 8.820312 v 4.015625 c -1.4375,1.289062 -4.113281,2.527343 -7.132812,2.527343 -5.996094,0 -10.359375,-4.609374 -10.359375,-10.851562 0,-6.246094 4.363281,-10.851562 10.359375,-10.851562 3.46875,0 6.292968,1.832031 7.828125,4.160156 l 5.847656,-3.171875 c -2.527344,-3.914063 -6.839844,-7.234375 -13.675781,-7.234375 -9.664063,0 -17.59375,6.640625 -17.59375,17.097656 z m 0,0"
           id="path6" />
      </g>
    </g>
  </g>
  <g
     fill="#0f5d8f"
     fill-opacity="1"
     id="g12"
     transform="translate(-95.346709,-95.802919)">
    <g
       transform="translate(168.17483,225.39189)"
       id="g11">
      <g
         id="g10">
        <path
           d="m 36.023438,0 9.417968,-33.050781 h -7.929687 l -5.75,23.882812 -6.242188,-23.882812 h -5.5 L 13.726562,-9.167969 7.929688,-33.050781 H 0.0507812 L 9.515625,0 h 7.480469 l 5.75,-22.695312 L 28.542969,0 Z m 0,0"
           id="path9" />
      </g>
    </g>
  </g>
  <g
     fill="#0f5d8f"
     fill-opacity="1"
     id="g15"
     transform="translate(-95.346709,-95.802919)">
    <g
       transform="translate(212.66766,225.39189)"
       id="g14">
      <g
         id="g13">
        <path
           d="m 10.308594,0 v -11.84375 h 8.421875 c 7.136719,0 11.101562,-4.804688 11.101562,-10.554688 0,-5.796874 -3.917969,-10.652343 -11.101562,-10.652343 H 3.269531 V 0 Z m 12.335937,-22.449219 c 0,2.777344 -2.082031,4.5625 -4.855469,4.5625 h -7.480468 v -9.121093 h 7.480468 c 2.773438,0 4.855469,1.835937 4.855469,4.558593 z m 0,0"
           id="path12" />
      </g>
    </g>
  </g>
  <g
     fill="#0f5d8f"
     fill-opacity="1"
     id="g18"
     transform="translate(-95.346709,-95.802919)">
    <g
       transform="translate(242.59373,225.39189)"
       id="g17">
      <g
         id="g16">
        <path
           d="m 19.027344,0.59375 c 7.53125,0 11.695312,-4.011719 14.074218,-8.125 l -6.046874,-2.925781 c -1.386719,2.726562 -4.359376,4.808593 -8.027344,4.808593 -5.746094,0 -10.109375,-4.609374 -10.109375,-10.851562 0,-6.246094 4.363281,-10.851562 10.109375,-10.851562 3.667968,0 6.640625,2.128906 8.027344,4.804687 l 6.046874,-2.972656 c -2.328124,-4.113281 -6.542968,-8.078125 -14.074218,-8.078125 -9.660156,0 -17.34375,6.9375 -17.34375,17.097656 0,10.15625 7.683594,17.09375 17.34375,17.09375 z m 0,0"
           id="path15" />
      </g>
    </g>
  </g>
  <g
     clip-path="url(#2813415a94)"
     id="g19"
     transform="translate(-95.346709,-95.802919)">
    <path
       fill="#ffffff"
       d="m 278.07812,158.85937 c -0.0391,-0.0781 -0.0391,-0.15625 -0.0781,-0.27343 -0.47266,0.0391 -0.94141,0.11718 -1.45313,0.15625 -9.96875,0.90234 -19.77734,0.86328 -29.16015,-3.41407 -4.90235,-2.23828 -9.92578,-4.16015 -14.91016,-6.27734 -4.35937,-1.84766 -8.7539,-3.73047 -13.38281,-5.0625 -5.37891,-1.53125 -10.83203,-2.12109 -16.40625,-1.14062 -6.32031,1.10156 -12.24609,3.21875 -17.81641,6.32031 -2.35547,1.29297 -4.63281,2.70703 -6.87109,4.16015 -3.88281,2.47266 -7.92578,4.51172 -12.28125,5.92579 -2.58984,0.82421 -5.26172,1.45312 -7.92969,2.03906 -1.57031,0.35547 -3.17969,0.47265 -5.02344,0.74609 0.66797,0.23438 1.14063,0.4336 1.60938,0.55078 6.4375,1.33203 12.83203,1.17578 19.11328,-0.78515 4.47266,-1.41407 8.59375,-3.64844 12.67578,-5.84766 3.41406,-1.84375 6.78906,-3.69141 10.28125,-5.33594 4.24219,-2.0039 8.79297,-3.17968 13.42578,-3.84765 7.65235,-1.09766 14.83203,0.3125 21.54297,4.0039 2.47266,1.3711 4.78906,3.01953 7.1836,4.62891 1.84375,1.21875 3.6875,2.51172 5.53125,3.80859 4.63281,3.21875 9.85156,4.55078 15.42578,4.51172 4.75,-0.0391 9.26172,-1.01953 13.69531,-2.70703 1.60937,-0.74609 3.21875,-1.49219 4.82812,-2.16016 z M 97.039062,155.99609 c 0.03906,0.0781 0.03906,0.19532 0.07813,0.27344 1.6875,-0.11719 3.335938,-0.3125 5.023438,-0.39062 8.47656,-0.35547 16.875,0.0781 24.80078,3.6875 5.96484,2.70703 12.01171,5.25781 18.05468,7.76953 3.60938,1.49218 7.30078,2.90625 10.98828,4.16015 3.57032,1.21875 7.30079,1.8086 11.10547,1.6875 6.83203,-0.19531 13.30469,-1.96093 19.42969,-4.86328 3.41406,-1.64844 6.71094,-3.61328 9.96484,-5.57422 3.17969,-1.88281 6.4375,-3.6875 9.89063,-5.02343 4.94531,-1.88282 10.00781,-3.21875 15.30859,-3.57032 0.11719,0 0.23438,-0.0781 0.54688,-0.19922 -0.82422,-0.27343 -1.44922,-0.50781 -2.03906,-0.625 -7.4961,-1.45312 -14.83594,-1.01953 -21.89844,1.96094 -3.61328,1.53125 -7.10547,3.45313 -10.63672,5.21875 -2.04297,1.02344 -4.00391,2.1211 -6.00391,3.17969 -4.35547,2.27734 -9.02734,3.69141 -13.85547,4.71094 -8.51562,1.72656 -16.60156,0.50781 -24.17578,-3.65235 -2.66797,-1.44922 -5.10156,-3.29687 -7.61328,-5.02343 -1.96094,-1.33204 -3.88281,-2.7461 -5.84765,-4.03907 -5.25782,-3.53515 -11.10547,-4.51562 -17.26563,-4.08203 -3.41797,0.23438 -6.7539,0.98047 -9.96875,2.07813 -1.96484,0.66797 -3.925776,1.53125 -5.886714,2.3164 z m 128.019528,6.4375 c 0,-0.0391 0,-0.0391 0.0391,-0.0781 -0.23829,-0.043 -0.47266,-0.043 -0.70704,-0.082 -8.35937,-0.39063 -16.28906,1.25781 -23.66406,5.26172 -2.94531,1.57031 -5.92969,3.13671 -8.87109,4.70703 -4.39453,2.35547 -9.06641,4.04297 -13.9336,5.18359 -7.10156,1.6875 -14.05078,1.21484 -20.95703,-0.98437 -4.98437,-1.60938 -9.61328,-3.92188 -14.16797,-6.4336 -3.21875,-1.76562 -6.47265,-3.45312 -9.6914,-5.22265 -3.53516,-1.88282 -7.37891,-2.62891 -11.34375,-2.82422 -4.66797,-0.23438 -9.22266,0.3125 -13.77344,1.29687 -0.66797,0.15625 -1.33594,0.27344 -2.04297,0.42969 -0.6289,0.15625 -1.2539,0.35547 -1.88281,0.51172 0.27344,0.11719 0.47266,0.0781 0.70703,0.0391 5.45313,-0.98047 10.91016,-1.60937 16.44141,-1.05859 3.10156,0.3125 6.24219,0.66406 9.0664,2.15625 2.67188,1.41406 5.30078,2.82422 7.92969,4.27734 3.375,1.84375 6.71094,3.88672 10.16406,5.57422 2.98438,1.45312 6.08203,2.66797 9.22266,3.6875 2.39453,0.78516 4.94531,1.21875 7.45703,1.53125 7.84766,0.94141 15.30469,-0.78516 22.44922,-3.96484 3.375,-1.48829 6.55469,-3.41407 9.80859,-5.14063 1.96485,-1.05859 3.84766,-2.19531 5.76953,-3.25781 4.75,-2.66797 9.77344,-4.39453 15.15235,-5.0625 2.27344,-0.15625 4.55078,-0.3125 6.82812,-0.54688 z m 0,0"
       fill-opacity="1"
       fill-rule="nonzero"
       id="path18" />
  </g>
  <g
     clip-path="url(#851891e72f)"
     id="g20"
     transform="translate(-95.346709,-95.802919)">
    <path
       fill="#00b6d4"
       d="m 278.07812,158.85937 c -1.60937,0.66797 -3.21875,1.41407 -4.86718,2.04297 -4.39453,1.6875 -8.94532,2.66797 -13.69532,2.70703 -5.61328,0.0391 -10.79296,-1.29687 -15.42578,-4.51171 -1.84375,-1.25782 -3.64843,-2.55079 -5.53125,-3.8086 -2.35547,-1.57031 -4.67187,-3.25781 -7.18359,-4.6289 -6.71094,-3.69141 -13.92969,-5.10547 -21.54688,-4.00391 -4.66796,0.66797 -9.18359,1.84375 -13.42187,3.84375 -3.49219,1.64844 -6.90625,3.49609 -10.28125,5.33984 -4.12109,2.23438 -8.20313,4.47266 -12.67578,5.84766 -6.28125,1.96094 -12.67578,2.15625 -19.11328,0.78516 -0.46875,-0.11719 -0.94141,-0.31641 -1.60938,-0.55079 1.84375,-0.27343 3.45313,-0.39062 5.02344,-0.74609 2.66797,-0.58984 5.33984,-1.21484 7.92969,-2.03906 4.35547,-1.375 8.4375,-3.45313 12.28125,-5.92578 2.27734,-1.45313 4.55468,-2.86719 6.87109,-4.16016 5.64844,-2.98437 11.53516,-5.10156 17.85547,-6.20312 5.61328,-0.98047 11.02734,-0.39063 16.40625,1.14062 4.62891,1.29297 9.02344,3.21484 13.42187,5.0625 4.94532,2.11719 10.00782,4.03906 14.91016,6.27734 9.38281,4.27735 19.19141,4.31641 29.16016,3.41407 0.47265,-0.0391 0.9414,-0.11719 1.45312,-0.15625 0,0.11718 0.0391,0.19531 0.0391,0.27343 z m 0,0"
       fill-opacity="1"
       fill-rule="nonzero"
       id="path19" />
  </g>
  <path
     fill="#006596"
     d="m 1.6923529,60.193171 c 1.960938,-0.78515 3.921878,-1.64843 5.925778,-2.3164 3.2148501,-1.09766 6.5507901,-1.84375 9.9687501,-2.07813 6.16016,-0.43359 12.04688,0.54688 17.26563,4.08203 1.96484,1.33203 3.88672,2.7461 5.84765,4.03907 2.51172,1.6875 4.94532,3.57421 7.61329,5.02343 7.57421,4.16016 15.66015,5.41797 24.17578,3.65235 4.82812,-0.98047 9.5,-2.39453 13.85547,-4.71094 2,-1.05859 4.0039,-2.15625 6.0039,-3.17969 3.53125,-1.76562 6.98438,-3.6875 10.636719,-5.21875 7.0625,-2.98047 14.40234,-3.41406 21.89844,-1.96094 0.6289,0.11719 1.21484,0.35157 2.03906,0.625 -0.35156,0.1211 -0.46875,0.16016 -0.54687,0.19922 -5.30079,0.39063 -10.36329,1.6875 -15.3086,3.57032 -3.45312,1.33593 -6.71094,3.14062 -9.88672,5.02343 -3.296869,1.92188 -6.554679,3.92578 -9.968749,5.57422 -6.125,2.94141 -12.59765,4.66797 -19.42968,4.86328 -3.80469,0.1211 -7.53516,-0.50781 -11.10547,-1.6875 -3.72657,-1.2539 -7.37891,-2.66797 -10.98828,-4.16015 -6.04297,-2.51172 -12.08594,-5.0625 -18.05469,-7.76953 -7.96484,-3.57032 -16.32422,-4.00391 -24.8398401,-3.64844 -1.6875,0.0781 -3.335942,0.23437 -5.023442,0.39062 -0.03906,-0.11718 -0.03906,-0.19531 -0.07813,-0.3125 z m 0,0"
     fill-opacity="1"
     fill-rule="nonzero"
     id="path20" />
  <g
     clip-path="url(#e5a648aaee)"
     id="g21"
     transform="translate(-95.346709,-95.802919)">
    <path
       fill="#0f5d8f"
       d="m 225.05859,162.43359 c -2.27734,0.19532 -4.59375,0.35157 -6.82812,0.66407 -5.37891,0.70703 -10.44141,2.43359 -15.15235,5.0625 -1.92187,1.0625 -3.80468,2.19921 -5.76953,3.25781 -3.2539,1.76562 -6.43359,3.65234 -9.80859,5.14453 -7.14453,3.17578 -14.60156,4.90234 -22.44922,3.96094 -2.51172,-0.3125 -5.0625,-0.7461 -7.45703,-1.53125 -3.14063,-1.01953 -6.23828,-2.23438 -9.22266,-3.6875 -3.45312,-1.6875 -6.78906,-3.72657 -10.16406,-5.57422 -2.62891,-1.44922 -5.30078,-2.90235 -7.92969,-4.27735 -2.82421,-1.49218 -5.96484,-1.84375 -9.0664,-2.15625 -5.53125,-0.55078 -10.98828,0.0391 -16.44141,1.0586 -0.19531,0.0391 -0.43359,0.0781 -0.70703,-0.0391 0.62891,-0.15625 1.25391,-0.35547 1.88281,-0.51172 0.66797,-0.15625 1.33594,-0.3125 2.04297,-0.42969 4.55078,-1.01953 9.10547,-1.53125 13.77344,-1.29688 3.96484,0.19532 7.80859,0.94141 11.34375,2.82813 3.21875,1.72656 6.47265,3.45312 9.6914,5.21875 4.55469,2.47266 9.22266,4.82812 14.16797,6.4375 6.90625,2.19531 13.85547,2.66797 20.95703,0.98047 4.86719,-1.17969 9.53907,-2.82813 13.9336,-5.17969 2.9414,-1.57031 5.92578,-3.14062 8.87109,-4.71094 7.41406,-3.96484 15.30469,-5.65234 23.66406,-5.25781 0.23438,0 0.46875,0.0391 0.70704,0.0781 0,-0.0781 0,-0.0391 -0.0391,-0.0391 z m 0,0"
       fill-opacity="1"
       fill-rule="nonzero"
       id="path21" />
  </g>
  <rect
     style="fill:#ffffff;fill-opacity:0.488889;stroke:none;stroke-width:0.75;stroke-opacity:0.490196"
     id="rect21"
     width="183.75"
     height="183.75"
     x="1.1441605e-06"
     y="-1.1496351e-06" />
</svg>
